<?xml version="1.0" encoding="UTF-8"?>
<svg version="1.1" xmlns="http://www.w3.org/2000/svg" width="555" height="165">
<path d="M0 0 C2.39655714 1.66047173 4.72017002 3.38888368 7.046875 5.14453125 C8.036875 5.63953125 8.036875 5.63953125 9.046875 6.14453125 C9.7275 5.42265625 10.408125 4.70078125 11.109375 3.95703125 C19.15981544 -4.00320818 26.9902818 -7.1306597 38.359375 -7.35546875 C49.89484093 -7.28003246 58.53616891 -3.44584894 66.8515625 4.62890625 C74.48307793 13.37391681 77.54683527 23.26385244 76.921875 34.76953125 C75.7337332 44.56820655 70.49658809 52.83485641 64.046875 60.14453125 C63.386875 60.14453125 62.726875 60.14453125 62.046875 60.14453125 C62.376875 60.63953125 62.706875 61.13453125 63.046875 61.64453125 C64.4554728 65.16602574 64.62525728 68.43860031 64.046875 72.14453125 C61.80720701 76.54091656 59.54020386 79.07068716 55.046875 81.14453125 C54.056875 81.14453125 53.066875 81.14453125 52.046875 81.14453125 C51.7375 82.72234375 51.7375 82.72234375 51.421875 84.33203125 C50.12429183 88.85976827 47.96873967 90.60685411 44.046875 93.14453125 C41.171875 93.45703125 41.171875 93.45703125 39.046875 93.14453125 C39.005625 94.19640625 38.964375 95.24828125 38.921875 96.33203125 C37.80799022 101.18538635 36.15731709 102.4569345 32.046875 105.14453125 C29.171875 105.95703125 29.171875 105.95703125 27.046875 106.14453125 C26.964375 107.03140625 26.881875 107.91828125 26.796875 108.83203125 C25.94148847 112.60998842 24.72593923 114.38667102 22.046875 117.14453125 C17.20808781 118.75746031 12.19558116 119.01424565 7.421875 117.08203125 C4.05465646 114.33508981 1.03878583 111.29164206 -1.953125 108.14453125 C-2.943125 108.63953125 -2.943125 108.63953125 -3.953125 109.14453125 C-10.19636824 109.5985853 -10.19636824 109.5985853 -12.828125 108.01953125 C-14.35743323 105.47068419 -14.62783441 103.07214652 -14.953125 100.14453125 C-15.695625 100.22703125 -16.438125 100.30953125 -17.203125 100.39453125 C-19.953125 100.14453125 -19.953125 100.14453125 -22.265625 98.51953125 C-24.38269087 95.53995706 -24.27836426 93.72216314 -23.953125 90.14453125 C-24.819375 90.45390625 -24.819375 90.45390625 -25.703125 90.76953125 C-27.953125 91.14453125 -27.953125 91.14453125 -30.078125 90.58203125 C-32.75990813 88.52599752 -33.149623 86.35853926 -33.953125 83.14453125 C-33.953125 82.48453125 -33.953125 81.82453125 -33.953125 81.14453125 C-35.066875 81.04140625 -36.180625 80.93828125 -37.328125 80.83203125 C-38.524375 80.60515625 -39.720625 80.37828125 -40.953125 80.14453125 C-43.2714378 76.66706206 -43.12275384 75.2156235 -42.953125 71.14453125 C-42.953125 70.15453125 -42.953125 69.16453125 -42.953125 68.14453125 C-44.98317286 66.12803616 -44.98317286 66.12803616 -47.578125 64.08203125 C-55.67249887 57.00660967 -61.12323948 48.06636281 -62.13330078 37.20751953 C-62.90399556 25.20512232 -61.45912588 15.64069775 -53.70703125 6.0234375 C-38.99792908 -9.73397485 -18.01004227 -11.31583344 0 0 Z M-43.953125 7.14453125 C-43.953125 7.80453125 -43.953125 8.46453125 -43.953125 9.14453125 C-44.613125 9.14453125 -45.273125 9.14453125 -45.953125 9.14453125 C-47.47940383 10.98853428 -47.47940383 10.98853428 -48.953125 13.33203125 C-49.46875 14.10933594 -49.984375 14.88664062 -50.515625 15.6875 C-55.04083204 23.42216095 -55.38162278 32.50417403 -53.1953125 41.13671875 C-52.25276094 43.57844681 -51.2008374 45.84542484 -49.953125 48.14453125 C-49.416875 49.13453125 -48.880625 50.12453125 -48.328125 51.14453125 C-44.59612367 55.85863819 -40.27348848 59.9725772 -35.953125 64.14453125 C-34.963125 63.64953125 -34.963125 63.64953125 -33.953125 63.14453125 C-28.64291687 62.69259864 -28.64291687 62.69259864 -26.140625 64.33203125 C-24.67774464 66.56484864 -24.30806545 68.51797192 -23.953125 71.14453125 C-22.839375 71.41265625 -21.725625 71.68078125 -20.578125 71.95703125 C-16.953125 73.14453125 -16.953125 73.14453125 -14.953125 76.14453125 C-14.828125 78.83203125 -14.828125 78.83203125 -14.953125 81.14453125 C-13.839375 81.26828125 -12.725625 81.39203125 -11.578125 81.51953125 C-7.953125 82.14453125 -7.953125 82.14453125 -5.953125 84.14453125 C-5.55265056 86.46728302 -5.2134146 88.80192482 -4.953125 91.14453125 C-3.839375 91.24765625 -2.725625 91.35078125 -1.578125 91.45703125 C-0.381875 91.68390625 0.814375 91.91078125 2.046875 92.14453125 C3.036875 93.62953125 3.036875 93.62953125 4.046875 95.14453125 C3.758125 96.19640625 3.469375 97.24828125 3.171875 98.33203125 C2.66329812 102.07646113 2.66329812 102.07646113 4.61328125 104.34375 C9.0666045 109.10437793 9.0666045 109.10437793 15.046875 111.14453125 C17.39314004 110.13486766 17.39314004 110.13486766 19.046875 108.14453125 C19.51646478 105.74807738 19.51646478 105.74807738 19.046875 103.14453125 C17.4040688 100.82395356 17.4040688 100.82395356 15.171875 98.83203125 C14.45257813 98.13464844 13.73328125 97.43726563 12.9921875 96.71875 C11.204837 94.93484341 11.204837 94.93484341 9.046875 95.14453125 C9.046875 93.16453125 9.046875 91.18453125 9.046875 89.14453125 C11.546875 88.64453125 11.546875 88.64453125 15.046875 89.14453125 C17.21630986 91.06861336 19.11887986 93.15996755 21.0859375 95.2890625 C23.0507098 97.40976846 23.0507098 97.40976846 26.421875 98.26953125 C29.20803619 98.43181859 29.20803619 98.43181859 31.046875 96.14453125 C31.58928797 93.25323537 31.58928797 93.25323537 31.046875 90.14453125 C29.11258807 87.67256052 29.11258807 87.67256052 26.546875 85.58203125 C22.10699833 81.73824913 22.10699833 81.73824913 21.765625 78.3671875 C21.8584375 77.63371094 21.95125 76.90023437 22.046875 76.14453125 C25.47095073 76.14453125 27.51094053 76.66814505 30.0859375 78.95703125 C31.45443866 80.39216356 32.79940693 81.85018964 34.1171875 83.33203125 C36.16831072 85.25859233 37.26261626 85.90964522 40.046875 86.14453125 C42.29443253 84.79289455 42.29443253 84.79289455 44.046875 83.14453125 C44.16617199 80.39544785 44.16617199 80.39544785 43.046875 77.14453125 C41.2250913 75.33661713 41.2250913 75.33661713 39.046875 73.64453125 C35.15798611 70.52647569 35.15798611 70.52647569 34.046875 66.70703125 C34.046875 65.86140625 34.046875 65.01578125 34.046875 64.14453125 C36.234375 63.86328125 36.234375 63.86328125 39.046875 64.14453125 C41.78142433 66.29798885 44.10258096 68.70093353 46.546875 71.17578125 C48.87837418 73.34553094 48.87837418 73.34553094 51.734375 73.55078125 C54.23446525 73.33967021 54.23446525 73.33967021 56.046875 71.14453125 C56.69446669 68.29945226 56.69446669 68.29945226 56.046875 65.14453125 C54.16868127 62.98157912 52.47410697 61.32440637 50.296875 59.51953125 C49.09671312 58.47392568 47.89884995 57.42567664 46.703125 56.375 C46.09210938 55.84310059 45.48109375 55.31120117 44.8515625 54.76318359 C42.04041539 52.24182194 39.42709067 49.53936678 36.796875 46.83203125 C27.03096973 36.59297606 27.03096973 36.59297606 13.984375 32.76953125 C3.76592543 32.94363327 -2.9450747 38.57436219 -10.22412109 45.1340332 C-14.67913797 49.11917955 -19.17769273 52.66416797 -25.203125 53.70703125 C-27.953125 53.14453125 -27.953125 53.14453125 -29.953125 51.01953125 C-31.29824853 47.15230109 -30.64361245 45.86404836 -28.953125 42.14453125 C-26.89300677 39.56082025 -24.56731308 37.29227612 -22.1953125 34.99609375 C-21.53226105 34.33870209 -20.86920959 33.68131042 -20.18606567 33.0039978 C-18.07599018 30.91622814 -15.95240704 28.84283437 -13.828125 26.76953125 C-12.39101169 25.35249026 -10.95480308 23.93453113 -9.51953125 22.515625 C-6.00778654 19.04787091 -2.48386436 15.59293947 1.046875 12.14453125 C-11.78232005 -0.94911479 -28.52334474 -3.02509665 -43.953125 7.14453125 Z " fill="#000" transform="translate(70.953125,45.85546875)"/>
<path d="M0 0 C1.8359375 2.00390625 1.8359375 2.00390625 3 4 C1.77946141 7.66161578 0.63217696 8.16270474 -2.5625 10.1875 C-3.38878906 10.71730469 -4.21507812 11.24710938 -5.06640625 11.79296875 C-5.70449219 12.19128906 -6.34257812 12.58960937 -7 13 C-7.49628906 12.60167969 -7.99257812 12.20335938 -8.50390625 11.79296875 C-15.67310045 6.2018135 -21.55917022 3.30825001 -30.80859375 3.59765625 C-40.04061232 4.76154598 -46.53464836 8.57995757 -52.37890625 15.71875 C-58.72332468 24.64679907 -58.89514602 33.32075799 -58 44 C-56.14197015 53.3013422 -50.98245703 61.63675114 -43.125 67.0625 C-35.66066636 70.7370519 -25.68573664 70.42609376 -17.85546875 68.04296875 C-13.08987359 65.79235035 -9.42054295 62.99063344 -6 59 C-1.95579349 60.77945087 1.46078487 63.39529673 5 66 C0.70205525 74.03109547 -7.46259877 78.54544044 -15.94140625 81.34765625 C-28.86076141 84.10312536 -41.87251963 81.98662626 -53 75 C-62.72121811 67.73421512 -70.14790863 58.23923717 -72 46 C-73.12610291 31.35731064 -71.89055793 19.1375443 -63 7 C-47.16379115 -11.41692437 -20.01516859 -15.80348253 0 0 Z " fill="#000" transform="translate(240,57)"/>
<path d="M0 0 C3.96 0 7.92 0 12 0 C12.33 12.87 12.66 25.74 13 39 C14.65 37.68 16.3 36.36 18 35 C24.21476887 32.0097701 30.55581255 30.77534523 37.25390625 32.62109375 C43.28932462 34.91884186 47.45957195 38.60506202 51 44 C51.89969052 46.88586737 52.12218587 49.47931613 52.11352539 52.49316406 C52.11344986 53.37377502 52.11337433 54.25438599 52.11329651 55.16168213 C52.10813522 56.10348328 52.10297394 57.04528442 52.09765625 58.015625 C52.0962413 58.98659119 52.09482635 59.95755737 52.09336853 60.95794678 C52.08777663 64.05532935 52.07522559 67.15263932 52.0625 70.25 C52.05748395 72.35156146 52.05292123 74.45312404 52.04882812 76.5546875 C52.03780985 81.70315292 52.02055074 86.85156416 52 92 C48.04 92 44.08 92 40 92 C39.98541748 90.84999512 39.97083496 89.69999023 39.95581055 88.51513672 C39.89766238 84.23211195 39.82043076 79.94960384 39.73754883 75.66699219 C39.70437704 73.81649181 39.67632113 71.96589214 39.65356445 70.11523438 C39.6198755 67.44878997 39.5675534 64.7832491 39.51171875 62.1171875 C39.50532883 61.29507782 39.4989389 60.47296814 39.49235535 59.62594604 C39.36749783 54.70361882 38.69873529 51.27357778 36 47 C33.09400598 44.57833832 31.33638332 44.03669636 27.5625 43.625 C22.34103911 44.17462746 19.25650715 45.6416139 15.6875 49.5 C12.67109236 53.96875206 12.79326141 58.17748833 12.68359375 63.38671875 C12.66281265 64.20372757 12.64203156 65.02073639 12.62062073 65.86250305 C12.55526921 68.47075034 12.49630727 71.07909775 12.4375 73.6875 C12.39430108 75.45639054 12.35068635 77.22527097 12.30664062 78.99414062 C12.19960257 83.32932463 12.09829456 87.66460929 12 92 C8.04 92 4.08 92 0 92 C0 61.64 0 31.28 0 0 Z " fill="#000" transform="translate(255,45)"/>
<path d="M0 0 C4.29 0 8.58 0 13 0 C17.01212236 8.54406349 20.4552272 17.22671928 23.75 26.0625 C24.48967631 28.03697798 25.23042535 30.01104624 25.972229 31.98472595 C26.63552231 33.75086083 27.29587415 35.5180996 27.95605469 37.28540039 C28.91698854 39.91428223 28.91698854 39.91428223 30 42 C37.425 21.21 37.425 21.21 45 0 C49.29 0 53.58 0 58 0 C56.11953814 6.48818295 54.04098895 12.78653965 51.55859375 19.06640625 C51.07258949 20.30994873 51.07258949 20.30994873 50.57676697 21.57861328 C49.53464466 24.24161949 48.48660345 26.90223703 47.4375 29.5625 C46.71359688 31.40287111 45.98980198 33.2432848 45.26611328 35.08374023 C44.18561387 37.83035844 43.10439163 40.57668158 42.02099609 43.32215881 C40.20622921 47.92244858 38.40423423 52.52690809 36.63374329 57.14442444 C35.55562345 59.95359803 34.46376779 62.75743945 33.375 65.5625 C33.01075928 66.52808838 32.64651855 67.49367676 32.27124023 68.48852539 C29.55180529 75.42079901 26.32384873 81.78410085 20 86 C18.02294922 86.24291992 18.02294922 86.24291992 15.8046875 86.23046875 C15.00675781 86.22853516 14.20882813 86.22660156 13.38671875 86.22460938 C12.55785156 86.21236328 11.72898437 86.20011719 10.875 86.1875 C10.03839844 86.18685547 9.20179688 86.18621094 8.33984375 86.18554688 C2.14033163 86.14033163 2.14033163 86.14033163 1 85 C1.08963062 83.30858344 1.24577676 81.62040398 1.4375 79.9375 C1.53933594 79.01839844 1.64117187 78.09929687 1.74609375 77.15234375 C1.82988281 76.44207031 1.91367187 75.73179687 2 75 C2.99580078 75.05220703 2.99580078 75.05220703 4.01171875 75.10546875 C5.33623047 75.14607422 5.33623047 75.14607422 6.6875 75.1875 C7.99267578 75.23970703 7.99267578 75.23970703 9.32421875 75.29296875 C12.67188575 74.92643587 14.35423553 74.08227386 17 72 C18.70725479 69.33585886 18.70725479 69.33585886 19.875 66.25 C20.30554688 65.24453125 20.73609375 64.2390625 21.1796875 63.203125 C23.02366312 56.00283924 19.89654694 49.76962483 17.0703125 43.26171875 C16.67931366 42.34091019 16.28831482 41.42010162 15.88546753 40.47138977 C14.63981087 37.54001226 13.38335275 34.61344748 12.125 31.6875 C10.87484614 28.77184351 9.62727408 25.85517505 8.38595581 22.93574524 C7.61556772 21.12467668 6.8401202 19.31574839 6.05862427 17.50944519 C3.60930903 11.76190627 1.70429139 6.01208118 0 0 Z " fill="#000" transform="translate(497,79)"/>
<path d="M0 0 C3.71955574 3.06727457 6.47650975 5.90403368 7.08706665 10.87078857 C7.10039032 11.69685608 7.11371399 12.52292358 7.12744141 13.37402344 C7.1473111 14.31469666 7.16718079 15.25536987 7.18765259 16.22454834 C7.1992038 17.23197083 7.210755 18.23939331 7.22265625 19.27734375 C7.2420224 20.31489807 7.26138855 21.35245239 7.28134155 22.42144775 C7.34108217 25.73270467 7.38750105 29.04399646 7.43359375 32.35546875 C7.47177857 34.60157759 7.5108306 36.84767187 7.55078125 39.09375 C7.64677936 44.59753785 7.73083115 50.10139426 7.80859375 55.60546875 C4.17859375 55.60546875 0.54859375 55.60546875 -3.19140625 55.60546875 C-3.68640625 52.14046875 -3.68640625 52.14046875 -4.19140625 48.60546875 C-4.87203125 49.36859375 -5.55265625 50.13171875 -6.25390625 50.91796875 C-12.41961409 56.5589355 -17.79432079 57.16912733 -25.96484375 56.953125 C-32.22722214 56.2783651 -36.38207984 54.04554487 -41.25390625 50.16796875 C-44.7326427 45.46144296 -43.81017008 39.11106059 -43.19140625 33.60546875 C-41.47461336 27.70399318 -37.39733079 24.55172654 -32.19140625 21.60546875 C-23.25636095 17.67522642 -13.73236885 18.30346876 -4.19140625 18.60546875 C-4.59057657 17.16301237 -5.01155142 15.72658034 -5.44140625 14.29296875 C-5.6734375 13.49246094 -5.90546875 12.69195312 -6.14453125 11.8671875 C-7.43468232 9.0798835 -8.50307693 8.08031609 -11.19140625 6.60546875 C-17.87410101 5.5457843 -23.72507934 6.10042017 -29.47265625 9.73046875 C-31.19140625 10.60546875 -31.19140625 10.60546875 -35.19140625 10.60546875 C-37.94140625 8.10546875 -37.94140625 8.10546875 -40.19140625 5.60546875 C-38.7993727 1.42936809 -36.57134495 0.7383418 -32.796875 -1.25390625 C-22.59958016 -5.7180893 -9.62441148 -6.12462549 0 0 Z M-31.19140625 33.60546875 C-32.30566097 36.878592 -32.32002342 38.91415146 -31.69140625 42.29296875 C-29.45395233 45.74237688 -27.06178764 46.39994012 -23.19140625 47.60546875 C-17.91828908 48.16053372 -14.67234287 47.43040706 -10.19140625 44.60546875 C-6.33267984 41.1793493 -6.33267984 41.1793493 -4.19140625 36.60546875 C-4.1239976 35.04428447 -4.10626169 33.48044355 -4.12890625 31.91796875 C-4.13792969 31.10972656 -4.14695312 30.30148438 -4.15625 29.46875 C-4.16785156 28.85386719 -4.17945313 28.23898438 -4.19140625 27.60546875 C-18.71732842 27.08451074 -18.71732842 27.08451074 -31.19140625 33.60546875 Z " fill="#000" transform="translate(363.19140625,81.39453125)"/>
<path d="M0 0 C3.96 0 7.92 0 12 0 C12 5.28 12 10.56 12 16 C16.95 16 21.9 16 27 16 C27 19.3 27 22.6 27 26 C22.05 26 17.1 26 12 26 C12.09703318 30.6269504 12.19982042 35.25302517 12.31738281 39.87939453 C12.35561829 41.45255765 12.39048066 43.02580658 12.421875 44.59912109 C12.46764422 46.86326723 12.52561761 49.12682547 12.5859375 51.390625 C12.59748871 52.09181458 12.60903992 52.79300415 12.62094116 53.51544189 C12.73920651 57.44607144 13.18579396 59.37158793 15 63 C19.29 63 23.58 63 28 63 C28 66.3 28 69.6 28 73 C21.86077985 76.06961008 15.14246984 76.01317374 8.4765625 74.3828125 C4.50320929 72.71370874 3.18584174 71.39543305 1.30737305 67.3984375 C-0.2248766 62.9247677 -0.38756961 58.81744873 -0.29296875 54.125 C-0.28872391 53.31506592 -0.28447906 52.50513184 -0.28010559 51.6706543 C-0.26346944 49.11341439 -0.22584772 46.55699696 -0.1875 44 C-0.1724336 42.25391773 -0.15874864 40.50782295 -0.14648438 38.76171875 C-0.11361566 34.50750125 -0.0619406 30.2538895 0 26 C-4.29 26 -8.58 26 -13 26 C-13 22.7 -13 19.4 -13 16 C-8.71 16 -4.42 16 0 16 C0 10.72 0 5.44 0 0 Z " fill="#000" transform="translate(463,63)"/>
<path d="M0 0 C1.485 0.495 1.485 0.495 3 1 C3 4.96 3 8.92 3 13 C0.03776042 13.16276042 -2.92447917 13.32552083 -5.88671875 13.48828125 C-10.13724477 14.1869248 -12.87383742 15.75317715 -15.75 18.9375 C-18.41675819 23.33765102 -18.2037344 28.02467751 -18.31640625 33.046875 C-18.33718735 33.81807678 -18.35796844 34.58927856 -18.37937927 35.3838501 C-18.44458572 37.83914572 -18.50362484 40.29454521 -18.5625 42.75 C-18.60571274 44.41797935 -18.6493279 46.08594832 -18.69335938 47.75390625 C-18.80023736 51.83583196 -18.90158566 55.91786182 -19 60 C-22.96 60 -26.92 60 -31 60 C-31 40.86 -31 21.72 -31 2 C-27.04 2 -23.08 2 -19 2 C-18.67 3.65 -18.34 5.3 -18 7 C-17.37351562 6.57847656 -16.74703125 6.15695313 -16.1015625 5.72265625 C-15.28429687 5.17480469 -14.46703125 4.62695312 -13.625 4.0625 C-12.81289063 3.51722656 -12.00078125 2.97195312 -11.1640625 2.41015625 C-7.24087218 -0.14629087 -4.70236862 -0.16499539 0 0 Z " fill="#000" transform="translate(416,77)"/>
<path d="M0 0 C3.63 0 7.26 0 11 0 C11 19.14 11 38.28 11 58 C7.37 58 3.74 58 0 58 C0 38.86 0 19.72 0 0 Z " fill="#000" transform="translate(431,79)"/>
<path d="M0 0 C2.4375 1.6875 2.4375 1.6875 4 4 C4.48812105 7.90496842 4.22683908 10.71834241 2 14 C-1.5086396 16.33909307 -2.87089433 16.41291057 -7 16 C-11.63235294 13.73529412 -11.63235294 13.73529412 -13 11 C-13.25303321 7.12015747 -13.30454139 4.22635795 -11 1 C-7.43300025 -1.77433314 -4.20504308 -1.05126077 0 0 Z " fill="#000" transform="translate(441,51)"/>
</svg>
