<svg width="176.032" height="104.856" viewBox="0 0 250 310.47" class="looka-1j8o68f">
  <path d="M.337 249.78c0-12.587 6.181-19.78 18.207-19.78s18.207 7.193 18.207 19.78v2.473H25.063v-3.259c0-5.62-2.248-7.755-6.182-7.755s-6.181 2.136-6.181 7.755c0 5.732 2.472 10.003 10.564 17.083 10.34 9.104 13.6 15.622 13.6 24.613 0 12.588-6.294 19.78-18.432 19.78S0 303.279 0 290.69v-4.833h11.688v5.62c0 5.62 2.473 7.642 6.406 7.642s6.407-2.023 6.407-7.642c0-5.732-2.473-10.003-10.565-17.083C3.596 265.29.337 258.772.337 249.78m83.19-18.881 12.587 78.671H83.64l-2.135-14.273H66.332l-2.136 14.273H52.845L65.432 230.9zm-9.778 13.936-5.844 39.785h11.913l-5.844-39.785zm67.68-13.936 12.588 78.671h-12.475l-2.135-14.273h-15.173l-2.135 14.273h-11.352l12.588-78.671zm-9.777 13.936-5.844 39.785h11.913l-5.845-39.785zm38.684 4.945c0-12.588 6.181-19.78 18.207-19.78s18.207 7.192 18.207 19.78v2.472H195.06v-3.259c0-5.62-2.248-7.755-6.181-7.755s-6.181 2.136-6.181 7.755c0 5.732 2.472 10.003 10.564 17.083 10.34 9.104 13.599 15.622 13.599 24.613 0 12.588-6.294 19.78-18.432 19.78S170 303.279 170 290.69v-4.833h11.688v5.62c0 5.62 2.473 7.642 6.406 7.642s6.406-2.023 6.406-7.642c0-5.732-2.472-10.003-10.564-17.083-10.34-9.104-13.6-15.622-13.6-24.613m55.768 59.79V230.9h12.363v78.671zm45.877-67.433v23.714h15.959v11.24h-15.96v32.48h-12.362V230.9h32.705v11.238zm50.035 67.433v-26.074L306.393 230.9h12.925l9.328 35.851h.225l9.328-35.851H350l-15.621 52.597v26.074z" fill="#fff"/>
</svg>
